<svg data-v-423bf9ae="" xmlns="http://www.w3.org/2000/svg" viewBox="0 0 454 90" class="iconLeft"><!----><!----><!----><g data-v-423bf9ae="" id="d9a667f4-7276-4b62-9817-6f3bb8b5a384" fill="#ffffff" transform="matrix(5.226480610464515,0,0,5.226480610464515,94.28178362388505,-7.16027611528591)"><path d="M2.65 10.21L2.65 10.08L4.42 7.87L3.51 7.58L3.59 7.07L6.49 7.07L6.40 7.57L5.37 7.85L3.76 9.84L4.30 10.53L4.30 10.53Q4.47 10.74 4.69 11.03L4.69 11.03L4.69 11.03Q4.92 11.33 5.03 11.48L5.03 11.48L5.03 11.48Q5.15 11.64 5.33 11.85L5.33 11.85L5.33 11.85Q5.50 12.05 5.61 12.15L5.61 12.15L5.61 12.15Q5.73 12.26 5.88 12.37L5.88 12.37L5.88 12.37Q6.04 12.48 6.19 12.53L6.19 12.53L6.19 12.53Q6.35 12.58 6.53 12.61L6.53 12.61L6.79 12.65L6.72 13.17L6.72 13.17Q6.32 13.31 5.91 13.31L5.91 13.31L5.91 13.31Q5.57 13.31 5.29 13.20L5.29 13.20L5.29 13.20Q5.02 13.10 4.71 12.81L4.71 12.81L4.71 12.81Q4.40 12.52 4.12 12.19L4.12 12.19L4.12 12.19Q3.85 11.85 3.37 11.21L3.37 11.21L2.65 10.21ZM0.23 13.17L0.30 12.63L1.35 12.38L1.35 5.60L0.27 5.24L0.35 4.72L2.32 4.56L2.49 4.73L2.49 5.12L2.49 12.38L3.58 12.62L3.50 13.17L0.23 13.17ZM7.08 13.17L7.16 12.63L8.20 12.38L8.20 8.18L7.16 7.80L7.25 7.28L9.17 7.12L9.34 7.29L9.34 12.38L10.43 12.62L10.36 13.17L7.08 13.17ZM8.70 4.24L8.70 4.24L8.70 4.24Q9.04 4.24 9.29 4.47L9.29 4.47L9.29 4.47Q9.54 4.70 9.54 5.02L9.54 5.02L9.54 5.02Q9.54 5.36 9.29 5.61L9.29 5.61L9.29 5.61Q9.04 5.86 8.70 5.86L8.70 5.86L8.70 5.86Q8.37 5.86 8.13 5.61L8.13 5.61L8.13 5.61Q7.90 5.36 7.90 5.01L7.90 5.01L7.90 5.01Q7.90 4.68 8.13 4.46L8.13 4.46L8.13 4.46Q8.37 4.24 8.70 4.24ZM16.73 8.18L16.73 8.18L16.81 8.18L16.81 8.18Q17.17 7.71 17.70 7.41L17.70 7.41L17.70 7.41Q18.23 7.10 18.84 7.10L18.84 7.10L18.84 7.10Q20.45 7.10 20.45 9.01L20.45 9.01L20.45 12.38L21.40 12.62L21.31 13.16L18.40 13.16L18.45 12.67L19.30 12.39L19.30 9.17L19.30 9.17Q19.30 8.66 18.99 8.32L18.99 8.32L18.99 8.32Q18.69 7.98 18.16 7.98L18.16 7.98L18.16 7.98Q17.75 7.98 17.44 8.16L17.44 8.16L17.44 8.16Q17.14 8.34 16.84 8.66L16.84 8.66L16.84 12.39L17.86 12.63L17.79 13.17L14.76 13.17L14.84 12.67L15.74 12.39L15.74 9.17L15.74 9.17Q15.74 8.64 15.40 8.31L15.40 8.31L15.40 8.31Q15.07 7.98 14.57 7.98L14.57 7.98L14.57 7.98Q13.73 7.98 13.21 8.57L13.21 8.57L13.21 12.39L14.19 12.63L14.12 13.17L10.96 13.17L11.03 12.67L12.06 12.39L12.06 8.25L10.96 7.91L11.03 7.39L13.11 7.11L13.23 7.25L13.11 8.11L13.18 8.11L13.18 8.11Q13.54 7.66 14.09 7.35L14.09 7.35L14.09 7.35Q14.63 7.04 15.23 7.04L15.23 7.04L15.23 7.04Q15.75 7.04 16.17 7.31L16.17 7.31L16.17 7.31Q16.58 7.59 16.73 8.18ZM22.53 12.84L22.53 12.84L22.53 5.60L21.49 5.24L21.58 4.72L23.47 4.57L23.65 4.73L23.65 7.37L23.54 8.08L23.63 8.08L23.63 8.08Q24.55 7.03 25.58 7.03L25.58 7.03L25.58 7.03Q26.57 7.03 27.17 7.84L27.17 7.84L27.17 7.84Q27.77 8.65 27.77 9.95L27.77 9.95L27.77 9.95Q27.77 10.73 27.50 11.39L27.50 11.39L27.50 11.39Q27.22 12.04 26.75 12.46L26.75 12.46L26.75 12.46Q26.28 12.87 25.68 13.10L25.68 13.10L25.68 13.10Q25.07 13.33 24.40 13.33L24.40 13.33L24.40 13.33Q23.31 13.33 22.53 12.84ZM26.56 10.38L26.56 10.38L26.56 10.38Q26.56 10.05 26.52 9.73L26.52 9.73L26.52 9.73Q26.48 9.42 26.38 9.08L26.38 9.08L26.38 9.08Q26.28 8.74 26.13 8.49L26.13 8.49L26.13 8.49Q25.97 8.24 25.71 8.08L25.71 8.08L25.71 8.08Q25.44 7.92 25.12 7.92L25.12 7.92L25.12 7.92Q24.27 7.92 23.65 8.58L23.65 8.58L23.65 12.11L23.65 12.11Q23.86 12.33 24.25 12.45L24.25 12.45L24.25 12.45Q24.64 12.58 25.09 12.58L25.09 12.58L25.09 12.58Q25.72 12.58 26.14 12.02L26.14 12.02L26.14 12.02Q26.56 11.46 26.56 10.38ZM31.81 11.89L31.81 10.25L31.81 10.25Q30.75 10.45 30.31 10.82L30.31 10.82L30.31 10.82Q29.86 11.18 29.86 11.70L29.86 11.70L29.86 11.70Q29.86 12.00 30.07 12.25L30.07 12.25L30.07 12.25Q30.28 12.50 30.63 12.50L30.63 12.50L30.63 12.50Q30.95 12.50 31.28 12.30L31.28 12.30L31.28 12.30Q31.62 12.11 31.81 11.89L31.81 11.89ZM33.01 13.30L33.01 13.30L33.01 13.30Q32.47 13.30 32.21 13.02L32.21 13.02L32.21 13.02Q31.95 12.74 31.95 12.38L31.95 12.38L31.95 12.28L31.87 12.28L31.87 12.28Q31.79 12.43 31.65 12.60L31.65 12.60L31.65 12.60Q31.52 12.76 31.30 12.94L31.30 12.94L31.30 12.94Q31.08 13.12 30.74 13.23L30.74 13.23L30.74 13.23Q30.40 13.34 30.00 13.34L30.00 13.34L30.00 13.34Q29.44 13.34 29.05 12.98L29.05 12.98L29.05 12.98Q28.66 12.63 28.66 12.02L28.66 12.02L28.66 12.02Q28.66 11.63 28.84 11.28L28.84 11.28L28.84 11.28Q29.03 10.92 29.39 10.62L29.39 10.62L29.39 10.62Q29.76 10.32 30.39 10.12L30.39 10.12L30.39 10.12Q31.01 9.91 31.81 9.86L31.81 9.86L31.81 9.48L31.81 9.48Q31.81 9.11 31.76 8.80L31.76 8.80L31.76 8.80Q31.71 8.50 31.57 8.23L31.57 8.23L31.57 8.23Q31.44 7.96 31.20 7.82L31.20 7.82L31.20 7.82Q30.95 7.68 30.60 7.68L30.60 7.68L30.60 7.68Q30.39 7.68 30.26 7.76L30.26 7.76L30.26 7.76Q30.12 7.84 30.05 8.03L30.05 8.03L30.05 8.03Q29.98 8.21 29.94 8.40L29.94 8.40L29.94 8.40Q29.91 8.60 29.87 8.91L29.87 8.91L29.87 8.91Q29.86 9.06 29.85 9.13L29.85 9.13L29.85 9.13Q29.70 9.13 29.60 9.12L29.60 9.12L29.60 9.12Q29.50 9.11 29.36 9.07L29.36 9.07L29.36 9.07Q29.22 9.04 29.12 8.97L29.12 8.97L29.12 8.97Q29.03 8.89 28.96 8.75L28.96 8.75L28.96 8.75Q28.90 8.61 28.90 8.42L28.90 8.42L28.90 8.42Q28.90 8.07 29.29 7.73L29.29 7.73L29.29 7.73Q29.67 7.39 30.22 7.20L30.22 7.20L30.22 7.20Q30.75 7.01 31.23 7.01L31.23 7.01L31.23 7.01Q32.14 7.01 32.53 7.52L32.53 7.52L32.53 7.52Q32.93 8.03 32.93 9.12L32.93 9.12L32.93 11.61L32.93 11.61Q32.93 12.09 33.07 12.26L33.07 12.26L33.07 12.26Q33.22 12.44 33.69 12.52L33.69 12.52L34.02 12.58L33.95 13.16L33.95 13.16Q33.84 13.17 33.67 13.21L33.67 13.21L33.67 13.21Q33.50 13.25 33.34 13.28L33.34 13.28L33.34 13.28Q33.19 13.30 33.01 13.30ZM37.41 13.31L37.41 13.31L37.41 13.31Q37.11 13.31 36.76 13.24L36.76 13.24L36.73 12.41L36.73 12.41Q36.97 12.51 37.17 12.54L37.17 12.54L37.17 12.54Q37.37 12.56 37.77 12.56L37.77 12.56L37.77 12.56Q38.47 12.56 38.83 11.98L38.83 11.98L38.83 11.98Q39.20 11.39 39.20 10.40L39.20 10.40L39.20 10.40Q39.20 7.92 37.89 7.92L37.89 7.92L37.89 7.92Q37.17 7.92 36.49 8.63L36.49 8.63L36.49 14.93L37.55 15.17L37.47 15.72L34.29 15.72L34.34 15.18L35.38 14.92L35.38 8.23L34.32 7.92L34.40 7.39L36.39 7.14L36.54 7.27L36.44 8.16L36.49 8.16L36.49 8.16Q36.70 7.88 36.94 7.64L36.94 7.64L36.94 7.64Q37.18 7.41 37.57 7.22L37.57 7.22L37.57 7.22Q37.96 7.03 38.38 7.03L38.38 7.03L38.38 7.03Q38.83 7.03 39.20 7.21L39.20 7.21L39.20 7.21Q39.57 7.38 39.85 7.72L39.85 7.72L39.85 7.72Q40.13 8.07 40.29 8.64L40.29 8.64L40.29 8.64Q40.45 9.22 40.45 9.98L40.45 9.98L40.45 9.98Q40.45 11.44 39.59 12.37L39.59 12.37L39.59 12.37Q38.73 13.31 37.41 13.31ZM47.06 9.15L47.06 9.15L47.00 8.86L47.00 8.86Q46.76 7.59 45.99 7.59L45.99 7.59L45.99 7.59Q45.64 7.59 45.43 7.83L45.43 7.83L45.43 7.83Q45.22 8.07 45.22 8.41L45.22 8.41L45.22 8.41Q45.22 8.67 45.38 8.90L45.38 8.90L45.38 8.90Q45.55 9.13 45.81 9.30L45.81 9.30L45.81 9.30Q46.08 9.48 46.40 9.66L46.40 9.66L46.40 9.66Q46.72 9.83 47.04 10.03L47.04 10.03L47.04 10.03Q47.36 10.23 47.62 10.45L47.62 10.45L47.62 10.45Q47.89 10.67 48.05 10.99L48.05 10.99L48.05 10.99Q48.22 11.30 48.22 11.67L48.22 11.67L48.22 11.67Q48.22 12.41 47.58 12.91L47.58 12.91L47.58 12.91Q46.94 13.41 46.12 13.41L46.12 13.41L46.12 13.41Q45.23 13.41 44.68 13.05L44.68 13.05L44.68 13.05Q44.13 12.69 44.13 12.21L44.13 12.21L44.13 12.21Q44.13 11.85 44.38 11.60L44.38 11.60L44.38 11.60Q44.63 11.35 45.04 11.31L45.04 11.31L45.04 11.31Q45.25 12.02 45.59 12.38L45.59 12.38L45.59 12.38Q45.92 12.74 46.32 12.74L46.32 12.74L46.32 12.74Q46.72 12.74 46.97 12.56L46.97 12.56L46.97 12.56Q47.22 12.39 47.22 12.04L47.22 12.04L47.22 12.04Q47.22 11.83 47.06 11.63L47.06 11.63L47.06 11.63Q46.90 11.43 46.64 11.27L46.64 11.27L46.64 11.27Q46.38 11.10 46.07 10.94L46.07 10.94L46.07 10.94Q45.76 10.77 45.45 10.57L45.45 10.57L45.45 10.57Q45.13 10.37 44.87 10.15L44.87 10.15L44.87 10.15Q44.62 9.93 44.45 9.60L44.45 9.60L44.45 9.60Q44.29 9.28 44.29 8.91L44.29 8.91L44.29 8.91Q44.29 8.67 44.37 8.41L44.37 8.41L44.37 8.41Q44.45 8.15 44.61 7.90L44.61 7.90L44.61 7.90Q44.78 7.64 45.02 7.45L45.02 7.45L45.02 7.45Q45.25 7.25 45.60 7.13L45.60 7.13L45.60 7.13Q45.94 7.01 46.33 7.01L46.33 7.01L46.33 7.01Q47.04 7.01 47.53 7.31L47.53 7.31L47.53 7.31Q48.01 7.61 48.01 8.16L48.01 8.16L48.01 8.16Q48.01 8.59 47.76 8.85L47.76 8.85L47.76 8.85Q47.50 9.12 47.06 9.15ZM54.65 9.07L54.65 9.07L54.65 12.39L55.64 12.63L55.57 13.17L52.50 13.17L52.58 12.67L53.50 12.39L53.53 9.26L53.53 9.21L53.53 9.21Q53.53 8.86 53.42 8.60L53.42 8.60L53.42 8.60Q53.31 8.35 53.13 8.21L53.13 8.21L53.13 8.21Q52.95 8.07 52.76 8.01L52.76 8.01L52.76 8.01Q52.56 7.94 52.34 7.94L52.34 7.94L52.34 7.94Q51.63 7.94 51.02 8.56L51.02 8.56L51.02 12.38L52.02 12.62L51.94 13.17L48.76 13.17L48.84 12.63L49.89 12.38L49.89 5.53L48.79 5.17L48.87 4.65L50.85 4.49L51.02 4.66L51.02 7.36L50.91 8.08L50.99 8.08L50.99 8.08Q51.95 7.01 52.99 7.01L52.99 7.01L52.99 7.01Q53.38 7.01 53.66 7.11L53.66 7.11L53.66 7.11Q53.94 7.20 54.18 7.42L54.18 7.42L54.18 7.42Q54.41 7.64 54.53 8.06L54.53 8.06L54.53 8.06Q54.65 8.47 54.65 9.07ZM57.47 9.78L57.47 9.78L57.47 9.78Q57.47 10.33 57.57 10.83L57.57 10.83L57.57 10.83Q57.67 11.33 57.88 11.75L57.88 11.75L57.88 11.75Q58.08 12.18 58.45 12.43L58.45 12.43L58.45 12.43Q58.82 12.69 59.29 12.69L59.29 12.69L59.29 12.69Q59.75 12.69 60.08 12.39L60.08 12.39L60.08 12.39Q60.42 12.09 60.56 11.66L60.56 11.66L60.56 11.66Q60.71 11.22 60.71 10.72L60.71 10.72L60.71 10.72Q60.71 10.18 60.61 9.67L60.61 9.67L60.61 9.67Q60.51 9.17 60.31 8.72L60.31 8.72L60.31 8.72Q60.12 8.26 59.76 7.99L59.76 7.99L59.76 7.99Q59.40 7.72 58.94 7.72L58.94 7.72L58.94 7.72Q58.45 7.72 58.11 8.02L58.11 8.02L58.11 8.02Q57.76 8.31 57.62 8.76L57.62 8.76L57.62 8.76Q57.47 9.21 57.47 9.78ZM61.93 10.16L61.93 10.16L61.93 10.16Q61.93 11.09 61.54 11.83L61.54 11.83L61.54 11.83Q61.16 12.56 60.51 12.95L60.51 12.95L60.51 12.95Q59.86 13.35 59.06 13.35L59.06 13.35L59.06 13.35Q57.75 13.35 57.00 12.49L57.00 12.49L57.00 12.49Q56.25 11.62 56.25 10.26L56.25 10.26L56.25 10.26Q56.25 9.51 56.50 8.88L56.50 8.88L56.50 8.88Q56.75 8.25 57.17 7.85L57.17 7.85L57.17 7.85Q57.59 7.44 58.12 7.22L58.12 7.22L58.12 7.22Q58.65 7 59.23 7L59.23 7L59.23 7Q60.48 7 61.20 7.86L61.20 7.86L61.20 7.86Q61.93 8.73 61.93 10.16ZM65.64 13.31L65.64 13.31L65.64 13.31Q65.34 13.31 65.00 13.24L65.00 13.24L64.96 12.41L64.96 12.41Q65.20 12.51 65.40 12.54L65.40 12.54L65.40 12.54Q65.60 12.56 66.00 12.56L66.00 12.56L66.00 12.56Q66.70 12.56 67.07 11.98L67.07 11.98L67.07 11.98Q67.44 11.39 67.44 10.40L67.44 10.40L67.44 10.40Q67.44 7.92 66.12 7.92L66.12 7.92L66.12 7.92Q65.41 7.92 64.72 8.63L64.72 8.63L64.72 14.93L65.78 15.17L65.71 15.72L62.52 15.72L62.57 15.18L63.61 14.92L63.61 8.23L62.56 7.92L62.63 7.39L64.63 7.14L64.77 7.27L64.67 8.16L64.72 8.16L64.72 8.16Q64.93 7.88 65.17 7.64L65.17 7.64L65.17 7.64Q65.41 7.41 65.80 7.22L65.80 7.22L65.80 7.22Q66.19 7.03 66.61 7.03L66.61 7.03L66.61 7.03Q67.06 7.03 67.43 7.21L67.43 7.21L67.43 7.21Q67.80 7.38 68.08 7.72L68.08 7.72L68.08 7.72Q68.37 8.07 68.52 8.64L68.52 8.64L68.52 8.64Q68.68 9.22 68.68 9.98L68.68 9.98L68.68 9.98Q68.68 11.44 67.82 12.37L67.82 12.37L67.82 12.37Q66.96 13.31 65.64 13.31Z"></path></g><!----><g data-v-423bf9ae="" id="180a764b-9504-40bc-b37f-bd4db604c09f" transform="matrix(1.4516129032258065,0,0,1.4516129032258065,-8.451612903225808,-1.4516129032258078)" stroke="none" fill="#FFD009"><path d="M24 40a6 6 0 1 0 6 6 6 6 0 0 0-6-6zm4 6a3.41 3.41 0 0 1-.05.46l-4.13-1.77.88-2.62A4 4 0 0 1 28 46zm-5.48-3.71l-1.93 5.77A3.9 3.9 0 0 1 20 46a4 4 0 0 1 2.52-3.71zM24 50a3.93 3.93 0 0 1-1.8-.45l1-2.95 4 1.73A4 4 0 0 1 24 50z"></path><path d="M24 56a10 10 0 0 0 7.13-17 10 10 0 0 0 0-14 10 10 0 1 0-14.27 0 10 10 0 0 0 0 14A10 10 0 0 0 24 56zm0-2a8 8 0 1 1 8-8 8 8 0 0 1-8 8zm0-18a3.93 3.93 0 0 1-1.8-.45l1-2.95 4 1.73A4 4 0 0 1 24 36zm4-3.54l-4.13-1.77.88-2.62A4 4 0 0 1 28 32a3.41 3.41 0 0 1 0 .46zm-7.36 1.6A3.9 3.9 0 0 1 20 32a4 4 0 0 1 2.52-3.71zM24 10a8 8 0 0 1 5.59 13.71 9.73 9.73 0 0 0-1.89-1 6 6 0 1 0-7.4 0 9.45 9.45 0 0 0-1.89 1A8 8 0 0 1 24 10zm4 8.46l-4.13-1.77.88-2.62A4 4 0 0 1 28 18a3.41 3.41 0 0 1 0 .46zm-7.36 1.6A3.9 3.9 0 0 1 20 18a4 4 0 0 1 2.52-3.71zm1.61 1.49l1-2.95 4 1.73A4 4 0 0 1 24 22a3.93 3.93 0 0 1-1.8-.45zM24 24a8 8 0 0 1 5.59 13.71 9.45 9.45 0 0 0-1.89-1 6 6 0 1 0-7.4 0 9.45 9.45 0 0 0-1.89 1A8 8 0 0 1 24 24z"></path><path d="M53 1H11a5 5 0 0 0-5 5v52a5 5 0 0 0 5 5h42a5 5 0 0 0 5-5V6a5 5 0 0 0-5-5zm3 57a3 3 0 0 1-3 3H11a3 3 0 0 1-3-3V6a3 3 0 0 1 3-3h42a3 3 0 0 1 3 3z"></path><path d="M53 5H11a1 1 0 0 0-1 1v52a1 1 0 0 0 1 1h42a1 1 0 0 0 1-1V6a1 1 0 0 0-1-1zm-1 52H12V7h40z"></path><path d="M39 56a3 3 0 0 0 3-3V11a3 3 0 0 0-6 0v42a3 3 0 0 0 3 3zm0-2a1 1 0 0 1-1-1v-7h2v7a1 1 0 0 1-1 1zm-1-10v-2h2v2zm1-34a1 1 0 0 1 1 1v29h-2V11a1 1 0 0 1 1-1zM47 56a3 3 0 0 0 3-3V11a3 3 0 0 0-6 0v42a3 3 0 0 0 3 3zm0-2a1 1 0 0 1-1-1v-7h2v7a1 1 0 0 1-1 1zm-1-10v-2h2v2zm1-34a1 1 0 0 1 1 1v29h-2V11a1 1 0 0 1 1-1z"></path></g><!----></svg>